<svg width="55" height="55" viewBox="0 0 55 55" fill="none" xmlns="http://www.w3.org/2000/svg">
<path d="M55 0.103481H54.9095V0H0.0646754V0.103481H0V54.9224H0.0776105V55H54.9224V54.9224H55V0.103481ZM51.4946 51.4946H3.50541V3.50541H51.4946V51.4946Z" fill="white"/>
<path d="M9.86948 27.7716L10.3351 20.6573H20.2305V23.1797H13.0127L12.7799 26.1159L12.9351 26.1418C13.6983 25.4692 14.1251 25.3528 15.4186 25.3528H17.2037C18.5101 25.3528 19.1957 25.5727 19.726 26.103C20.4116 26.7886 20.6703 27.8622 20.6703 29.6602C20.6703 32.0402 20.3986 32.8681 19.7131 33.5924C19.2474 34.084 18.523 34.3556 17.3072 34.3556H13.1162C11.8615 34.3556 11.0078 34.1357 10.5292 33.6959C9.90828 33.0491 9.62371 32.1566 9.62371 29.9577L12.6893 29.9318C12.7152 31.0442 12.8704 31.4711 13.0256 31.6133C13.1809 31.7815 13.4525 31.8462 14.0863 31.8462H16.2206C16.7509 31.8462 16.9967 31.7686 17.1519 31.6263C17.333 31.4452 17.4882 31.0442 17.4882 29.8283C17.4882 28.6124 17.333 28.2244 17.1519 28.0433C16.9967 27.901 16.7639 27.8234 16.2206 27.8234H14.8495C13.9311 27.8234 13.3619 28.0174 12.5212 28.5477L9.86948 27.7716Z" fill="white"/>
<path d="M28.7806 20.6573C30.294 20.6573 31.0054 20.8384 31.6004 21.3817C32.4024 22.1061 33.0621 23.5289 33.0621 27.5C33.0621 31.4452 32.4024 32.881 31.6004 33.6183C31.0183 34.1486 30.294 34.3427 28.7806 34.3427H25.5985C24.0851 34.3427 23.3866 34.1486 22.8046 33.6183C21.9897 32.881 21.3429 31.4452 21.3429 27.5C21.3429 23.5289 21.9897 22.1061 22.8046 21.3817C23.3866 20.8384 24.0981 20.6573 25.5985 20.6573H28.7806ZM26.297 23.1797C25.5727 23.1797 25.3398 23.2573 25.1846 23.3996C24.9647 23.5936 24.6543 24.1239 24.6543 27.5129C24.6543 30.9019 24.9647 31.4193 25.1846 31.6004C25.3398 31.7556 25.5727 31.8203 26.297 31.8203H28.0821C28.8194 31.8203 29.0393 31.7556 29.2204 31.6004C29.4403 31.4193 29.7507 30.9019 29.7507 27.5129C29.7507 24.1239 29.4403 23.6065 29.2204 23.3996C29.0393 23.2573 28.8323 23.1797 28.0821 23.1797H26.297Z" fill="white"/>
<path d="M41.0819 20.6573C42.5953 20.6573 43.3067 20.8384 43.9017 21.3817C44.7037 22.1061 45.3634 23.5289 45.3634 27.5C45.3634 31.4452 44.7037 32.881 43.9017 33.6183C43.3196 34.1486 42.5953 34.3427 41.0819 34.3427H37.8998C36.3864 34.3427 35.6879 34.1486 35.1058 33.6183C34.2909 32.881 33.6442 31.4452 33.6442 27.5C33.6442 23.5289 34.2909 22.1061 35.1058 21.3817C35.6879 20.8384 36.3994 20.6573 37.8998 20.6573H41.0819ZM38.5983 23.1797C37.874 23.1797 37.6411 23.2573 37.4859 23.3996C37.266 23.5936 36.9556 24.1239 36.9556 27.5129C36.9556 30.9019 37.266 31.4193 37.4859 31.6004C37.6411 31.7556 37.874 31.8203 38.5983 31.8203H40.3834C41.1207 31.8203 41.3406 31.7556 41.5087 31.6004C41.7286 31.4193 42.039 30.9019 42.039 27.5129C42.039 24.1239 41.7286 23.6065 41.5087 23.3996C41.3406 23.2573 41.1207 23.1797 40.3834 23.1797H38.5983Z" fill="white"/>
</svg>
